<?xml version="1.0" encoding="UTF-8"?>
<svg width="226px" height="241px" viewBox="0 0 226 241" version="1.1" xmlns="http://www.w3.org/2000/svg" xmlns:xlink="http://www.w3.org/1999/xlink">
    <title>Group 20</title>
    <defs>
        <path d="M15,-0.001 C10.296,-0.001 6.102,2.168 3.352,5.556 L3.352,5.556 L48.305,32.69 C51.304,31.796 54.062,31.404 56.218,31.238 L56.218,31.238 C51.687,30.3 47.157,29.363 42.628,28.426 L42.628,28.426 C43.737,26.209 46.099,22.267 50.594,19.055 L50.594,19.055 C57.639,14.021 65.117,14.214 67.464,14.37 L67.464,14.37 L61.841,10.153 C60.278,8.435 58.717,6.718 57.155,5 L57.155,5 C60.66,6.58 66.136,8.666 73.087,9.685 L73.087,9.685 C77.698,10.361 80.778,10.248 83.58,10.133 L83.58,10.133 C86.945,9.998 89.909,9.861 94.643,11.09 L94.643,11.09 C98.789,12.166 107.305,14.379 111.513,21.867 L111.513,21.867 C113.314,25.072 113.756,28.231 113.855,30.3 L113.855,30.3 C116.221,27.518 116.955,23.749 115.73,20.461 L115.73,20.461 C114.275,16.548 110.703,15.073 110.108,14.839 L110.108,14.839 C110.753,14.908 119.203,15.956 123.228,23.74 L123.228,23.74 C125.985,29.07 125.618,35.531 122.291,40.607 L122.291,40.607 C124.421,41.392 127.027,42.57 129.789,44.355 L129.789,44.355 C132.117,45.86 133.99,47.432 135.447,48.827 L135.447,48.827 C136.198,51.406 136.949,53.986 137.699,56.564 L137.699,56.564 L221.333,5.156 C219.988,3.61 218.313,2.309 216.334,1.391 L216.334,1.391 C214.357,0.475 212.204,-0.001 210.025,-0.001 L210.025,-0.001 L15,-0.001 Z" id="path-1"></path>
    </defs>
    <g id="Page-1" stroke="none" stroke-width="1" fill="none" fill-rule="evenodd">
        <g id="Group-20">
            <path d="M15,-0.001 C10.296,-0.001 6.102,2.168 3.352,5.556 L3.352,5.556 L48.305,32.69 C51.304,31.796 54.062,31.404 56.218,31.238 L56.218,31.238 C51.687,30.3 47.157,29.363 42.628,28.426 L42.628,28.426 C43.737,26.209 46.099,22.267 50.594,19.055 L50.594,19.055 C57.639,14.021 65.117,14.214 67.464,14.37 L67.464,14.37 L61.841,10.153 C60.278,8.435 58.717,6.718 57.155,5 L57.155,5 C60.66,6.58 66.136,8.666 73.087,9.685 L73.087,9.685 C77.698,10.361 80.778,10.248 83.58,10.133 L83.58,10.133 C86.945,9.998 89.909,9.861 94.643,11.09 L94.643,11.09 C98.789,12.166 107.305,14.379 111.513,21.867 L111.513,21.867 C113.314,25.072 113.756,28.231 113.855,30.3 L113.855,30.3 C116.221,27.518 116.955,23.749 115.73,20.461 L115.73,20.461 C114.275,16.548 110.703,15.073 110.108,14.839 L110.108,14.839 C110.753,14.908 119.203,15.956 123.228,23.74 L123.228,23.74 C125.985,29.07 125.618,35.531 122.291,40.607 L122.291,40.607 C124.421,41.392 127.027,42.57 129.789,44.355 L129.789,44.355 C132.117,45.86 133.99,47.432 135.447,48.827 L135.447,48.827 C136.198,51.406 136.949,53.986 137.699,56.564 L137.699,56.564 L221.333,5.156 C219.988,3.61 218.313,2.309 216.334,1.391 L216.334,1.391 C214.357,0.475 212.204,-0.001 210.025,-0.001 L210.025,-0.001 L15,-0.001 Z" id="Fill-1" fill="#2C8194"></path>
            <path d="M141.858,57.529 C148.342,58.749 154.826,59.966 161.311,61.185 L161.311,61.185 C163.004,61.504 164.268,62.916 164.416,64.634 L164.416,64.634 C164.632,67.162 164.55,70.445 163.48,74.062 L163.48,74.062 C163.121,75.272 162.554,76.849 161.654,78.558 L161.654,78.558 C158.688,84.187 154.33,87.173 152.282,88.397 L152.282,88.397 C153.541,90.18 153.328,91.297 153.22,91.675 L153.22,91.675 C152.592,93.866 148.58,95.344 143.202,94.383 L143.202,94.383 C130.978,97.065 127.474,101.152 126.508,104.356 L126.508,104.356 C125.756,106.852 126.581,108.685 126.977,112.759 L126.977,112.759 C127.403,117.129 127.211,122.798 125.102,129.625 L125.102,129.625 C123.698,126.502 122.291,123.379 120.885,120.256 L120.885,120.256 C121.256,123.235 122.693,137.039 114.512,148.373 L114.512,148.373 L114.512,240.206 C115.968,240.01 117.419,239.596 118.821,238.945 L118.821,238.945 C122.042,237.452 124.628,234.866 126.121,231.645 L126.121,231.645 L223.634,21.309 C225.748,16.748 225.363,11.679 223.065,7.613 L223.065,7.613 L141.858,57.529 Z" id="Fill-4" fill="#2C8194"></path>
            <path d="M0,15 C0,17.179 0.475,19.331 1.391,21.309 L1.391,21.309 L26.662,75.817 C29.642,72.856 31.138,69.671 31.85,67.781 L31.85,67.781 C30.51,67.594 28.659,67.166 26.678,66.132 L26.678,66.132 C22.949,64.188 20.968,61.251 20.135,59.816 L20.135,59.816 C28.109,61.315 30.612,60.218 31.381,58.879 L31.381,58.879 C32.579,56.793 29.417,54.377 29.507,49.977 L29.507,49.977 C29.615,44.659 34.355,40.74 37.473,38.265 L37.473,38.265 C39.829,36.395 42.28,35.021 44.671,34.001 L44.671,34.001 L1.706,8.067 C0.622,10.142 0,12.497 0,15" id="Fill-7" fill="#2C8194"></path>
            <path d="M102.609,158.4 C101.768,163.622 100.002,171.505 95.857,180.098 L95.857,180.098 C92.303,187.466 87.784,192.931 83.261,197.903 L83.261,197.903 L98.904,231.645 C101.29,236.793 106.225,239.945 111.513,240.302 L111.513,240.302 L111.513,151.936 C108.551,154.97 105.374,157.021 102.609,158.4" id="Fill-10" fill="#2C8194"></path>
            <path d="M137.6989,56.5647 C136.9489,53.9857 136.1979,51.4057 135.4469,48.8267 C133.9899,47.4317 132.1169,45.8597 129.7889,44.3557 C127.0269,42.5697 124.4219,41.3927 122.2909,40.6067 C125.6189,35.5317 125.9849,29.0697 123.2279,23.7397 C119.2029,15.9567 110.7529,14.9077 110.1079,14.8387 C110.7029,15.0727 114.2749,16.5477 115.7299,20.4607 C116.9549,23.7487 116.2209,27.5177 113.8559,30.2997 C113.7569,28.2307 113.3149,25.0717 111.5129,21.8667 C107.3049,14.3787 98.7889,12.1667 94.6429,11.0897 C85.9669,8.8367 83.2339,11.1717 73.0879,9.6847 C66.1359,8.6657 60.6599,6.5807 57.1549,4.9997 C58.7169,6.7177 60.2779,8.4357 61.8409,10.1527 L67.4639,14.3697 C65.1159,14.2137 57.6379,14.0217 50.5949,19.0557 C46.0989,22.2677 43.7379,26.2097 42.6279,28.4257 C47.1569,29.3627 51.6869,30.2997 56.2179,31.2367 C54.0619,31.4037 51.3039,31.7957 48.3049,32.6897 L113.0059,71.7437 L137.6989,56.5647 Z" id="Fill-13" fill="#191D36"></path>
            <path d="M120.8854,120.2551 C122.2904,123.3791 123.6984,126.5021 125.1024,129.6261 C127.2104,122.7981 127.4034,117.1291 126.9774,112.7591 C126.5804,108.6851 125.7564,106.8521 126.5084,104.3561 C127.4744,101.1521 130.9784,97.0651 143.2014,94.3831 C148.5794,95.3441 152.5924,93.8661 153.2194,91.6751 C153.3274,91.2971 153.5404,90.1801 152.2814,88.3961 C154.3294,87.1731 158.6884,84.1871 161.6544,78.5571 C162.5544,76.8481 163.1214,75.2721 163.4804,74.0621 C164.5494,70.4451 164.6324,67.1621 164.4154,64.6331 C164.2684,62.9161 163.0044,61.5041 161.3104,61.1851 C154.8254,59.9661 148.3424,58.7481 141.8584,57.5291 L114.5124,74.3381 L114.5124,148.3731 C122.6924,137.0391 121.2564,123.2341 120.8854,120.2551" id="Fill-15" fill="#191D36"></path>
            <path d="M44.6706,34.0008 C42.2796,35.0208 39.8296,36.3948 37.4736,38.2648 C34.3556,40.7398 29.6156,44.6588 29.5066,49.9778 C29.4166,54.3778 32.5786,56.7928 31.3806,58.8788 C30.6116,60.2178 28.1086,61.3148 20.1346,59.8158 C20.9676,61.2508 22.9486,64.1878 26.6776,66.1328 C28.6586,67.1658 30.5096,67.5938 31.8496,67.7808 C31.1376,69.6708 29.6426,72.8558 26.6616,75.8168 L83.2606,197.9028 C87.7846,192.9318 92.3036,187.4658 95.8576,180.0988 C100.0026,171.5058 101.7676,163.6218 102.6086,158.3998 C105.3736,157.0208 108.5506,154.9698 111.5126,151.9358 L111.5126,74.3468 L44.6706,34.0008 Z" id="Fill-17" fill="#191D36"></path>
            <mask id="mask-2" fill="white">
                <use xlink:href="#path-1"></use>
            </mask>
            <g id="Clip-2"></g>
        </g>
    </g>
</svg>